  http://www.scenespeeds.com/	



General
Complete name: Ozombie.2012.BDRip.XVID.AC3.HQ.Hive-CM8.avi
Format: AVI
Format/Info: Audio Video Interleave
File size: 1.32 GiB
Duration: 1h 30mn
Overall bit rate: 2 092 Kbps
Writing application: Nandub v1.0rc2
Writing library: Nandub build 1853/release

Video
ID: 0
Format: MPEG-4 Visual
Format profile: Advanced Simple@L5
Format settings, BVOP: 1
Format settings, QPel: Yes
Format settings, GMC: No warppoints
Format settings, Matrix: Default (H.263)
Muxing mode: Packed bitstream
Codec ID: XVID
Codec ID/Hint: XviD
Duration: 1h 30mn
Bit rate: 1 698 Kbps
Width: 720 pixels
Height: 400 pixels
Display aspect ratio: 16:9
Frame rate: 25.000 fps
Color space: YUV
Chroma subsampling: 4:2:0
Bit depth: 8 bits
Scan type: Progressive
Compression mode: Lossy
Bits/(Pixel*Frame): 0.236
Stream size: 1.07 GiB (81%)
Writing library: XviD 1.2.1 (UTC 2008-12-04)

Audio
ID: 1
Format: AC-3
Format/Info: Audio Coding 3
Mode extension: CM (complete main)
Codec ID: 2000
Duration: 1h 30mn
Bit rate mode: Constant
Bit rate: 384 Kbps
Channel(s): 6 channels
Channel positions: Front: L C R, Side: L R, LFE
Sampling rate: 48.0 KHz
Bit depth: 16 bits
Compression mode: Lossy
Stream size: 248 MiB (18%)
Alignment: Split accross interleaves
Interleave, duration: 40 ms (1.00 video frame)
Interleave, preload duration: 500 ms

Plot:
Osama Bin Laden has returned from his watery grave and is making an army of zombie terrorists!

Cast:
Corey Sevier ... Chip
Eve Mauro ... Dusty
Jasen Wade ... Derek
Danielle Chuchran ... Tomboy 

  http://www.scenespeeds.com/	